# MagicaVoxel @ Ephtracy

# group
g PEW

# material
mtllib PEW.mtl
usemtl palette

# normals
vn -1 0 0
vn 1 0 0
vn 0 0 1
vn 0 0 -1
vn 0 -1 0
vn 0 1 0

# texcoords
vt 0.880859 0.5
vt 0.888672 0.5
vt 0.958984 0.5

# verts
v -1 10 7
v -1 10 6
v -1 10 5
v -1 10 -0
v -1 12 7
v -1 12 6
v -1 12 5
v -1 12 -0
v 0 9 7
v 0 9 -0
v 0 10 8
v 0 10 7
v 0 10 6
v 0 10 5
v 0 10 -0
v 0 10 -8
v 0 11 -7
v 0 11 -8
v 0 11 -9
v 0 12 8
v 0 12 7
v 0 12 6
v 0 12 5
v 0 12 3
v 0 12 2
v 0 12 -0
v 0 12 -7
v 0 12 -8
v 0 12 -9
v 0 13 7
v 0 13 3
v 0 13 2
v 0 13 -0
v 1 10 -8
v 1 10 -9
v 1 11 -7
v 1 11 -8
v 1 11 -9
v 1 11 -10
v 1 12 -7
v 1 12 -8
v 1 12 -9
v 1 12 -10
v 1 10 -7
v 1 10 -8
v 1 11 -6
v 1 11 -7
v 1 11 -8
v 1 12 6
v 1 12 5
v 1 12 -6
v 1 12 -7
v 1 13 6
v 1 13 5
v 2 9 7
v 2 9 5
v 2 9 4
v 2 9 3
v 2 9 2
v 2 9 -0
v 2 10 8
v 2 10 7
v 2 10 5
v 2 10 4
v 2 10 3
v 2 10 2
v 2 10 -0
v 2 10 -7
v 2 10 -8
v 2 10 -9
v 2 11 -2
v 2 11 -3
v 2 11 -6
v 2 11 -7
v 2 11 -8
v 2 11 -9
v 2 11 -10
v 2 12 8
v 2 12 7
v 2 12 6
v 2 12 5
v 2 12 3
v 2 12 2
v 2 12 -0
v 2 12 -2
v 2 12 -3
v 2 12 -6
v 2 12 -7
v 2 12 -10
v 2 13 7
v 2 13 6
v 2 13 5
v 2 13 -0
v 3 10 7
v 3 10 -0
v 3 11 3
v 3 11 2
v 3 12 7
v 3 12 3
v 3 12 2
v 3 12 -0
v 0 10 8
v 0 12 8
v 2 10 8
v 2 12 8
v -1 10 7
v -1 12 7
v 0 9 7
v 0 10 7
v 0 12 7
v 0 13 7
v 2 9 7
v 2 10 7
v 2 12 7
v 2 13 7
v 3 10 7
v 3 12 7
v 1 12 5
v 1 13 5
v 2 12 5
v 2 13 5
v 1 11 -7
v 1 12 -7
v 2 11 -7
v 2 12 -7
v 0 11 -8
v 0 12 -8
v 1 10 -8
v 1 11 -8
v 1 12 -8
v 2 10 -8
v 2 11 -8
v 1 12 6
v 1 13 6
v 2 12 6
v 2 13 6
v -1 10 -0
v -1 12 -0
v 0 9 -0
v 0 10 -0
v 0 12 -0
v 0 13 -0
v 2 9 -0
v 2 10 -0
v 2 12 -0
v 2 13 -0
v 3 10 -0
v 3 12 -0
v 1 11 -6
v 1 12 -6
v 2 11 -6
v 2 12 -6
v 0 11 -7
v 0 12 -7
v 1 10 -7
v 1 11 -7
v 1 12 -7
v 2 10 -7
v 2 11 -7
v 0 10 -8
v 0 11 -8
v 1 10 -8
v 1 11 -8
v 0 11 -9
v 0 12 -9
v 1 10 -9
v 1 11 -9
v 1 12 -9
v 2 10 -9
v 2 11 -9
v 1 11 -10
v 1 12 -10
v 2 11 -10
v 2 12 -10
v 0 9 7
v 2 9 7
v 1 9 5
v 2 9 5
v 1 9 4
v 2 9 4
v 1 9 3
v 2 9 3
v 1 9 2
v 2 9 2
v 0 9 -0
v 2 9 -0
v 0 10 8
v 2 10 8
v -1 10 7
v 0 10 7
v 2 10 7
v 3 10 7
v -1 10 6
v 0 10 6
v -1 10 5
v 0 10 5
v 2 10 5
v 2 10 4
v 2 10 3
v 2 10 2
v -1 10 -0
v 0 10 -0
v 2 10 -0
v 3 10 -0
v 1 10 -7
v 2 10 -7
v 0 10 -8
v 1 10 -8
v 2 10 -8
v 1 10 -9
v 2 10 -9
v 1 11 -7
v 2 11 -7
v 0 11 -8
v 1 11 -8
v 2 11 -8
v 0 11 -9
v 1 11 -9
v 2 11 -9
v 1 11 -10
v 2 11 -10
v 1 11 -6
v 2 11 -6
v 0 11 -7
v 1 11 -7
v 2 11 -7
v 0 11 -8
v 1 11 -8
v 0 12 8
v 2 12 8
v -1 12 7
v 0 12 7
v 2 12 7
v 3 12 7
v -1 12 6
v 0 12 6
v 1 12 6
v 2 12 6
v -1 12 5
v 0 12 5
v 1 12 5
v 2 12 5
v 0 12 3
v 2 12 3
v 3 12 3
v 0 12 2
v 2 12 2
v 3 12 2
v -1 12 -0
v 0 12 -0
v 2 12 -0
v 3 12 -0
v 1 12 -2
v 2 12 -2
v 1 12 -3
v 2 12 -3
v 1 12 -6
v 2 12 -6
v 0 12 -7
v 1 12 -7
v 2 12 -7
v 0 12 -8
v 1 12 -8
v 0 12 -9
v 1 12 -9
v 1 12 -10
v 2 12 -10
v 0 13 7
v 2 13 7
v 1 13 6
v 2 13 6
v 1 13 5
v 2 13 5
v 0 13 3
v 1 13 3
v 0 13 2
v 1 13 2
v 0 13 -0
v 2 13 -0

# faces
f 5/2/1 2/2/1 1/2/1
f 6/3/1 3/3/1 2/3/1
f 6/2/1 2/2/1 5/2/1
f 7/2/1 4/2/1 3/2/1
f 7/3/1 3/3/1 6/3/1
f 8/2/1 4/2/1 7/2/1
f 12/2/1 10/2/1 9/2/1
f 13/2/1 10/2/1 12/2/1
f 14/2/1 10/2/1 13/2/1
f 15/2/1 10/2/1 14/2/1
f 17/2/1 16/2/1 15/2/1
f 18/2/1 16/2/1 17/2/1
f 20/1/1 12/1/1 11/1/1
f 21/1/1 12/1/1 20/1/1
f 26/2/1 17/2/1 15/2/1
f 27/2/1 17/2/1 26/2/1
f 28/2/1 19/2/1 18/2/1
f 29/2/1 19/2/1 28/2/1
f 30/2/1 22/2/1 21/2/1
f 30/2/1 23/2/1 22/2/1
f 30/2/1 24/2/1 23/2/1
f 31/3/1 25/3/1 24/3/1
f 31/2/1 24/2/1 30/2/1
f 32/2/1 26/2/1 25/2/1
f 32/3/1 25/3/1 31/3/1
f 33/2/1 26/2/1 32/2/1
f 37/2/1 35/2/1 34/2/1
f 38/2/1 35/2/1 37/2/1
f 40/2/1 37/2/1 36/2/1
f 41/2/1 37/2/1 40/2/1
f 42/2/1 39/2/1 38/2/1
f 43/2/1 39/2/1 42/2/1
f 44/2/2 45/2/2 47/2/2
f 47/2/2 45/2/2 48/2/2
f 46/2/2 47/2/2 51/2/2
f 51/2/2 47/2/2 52/2/2
f 49/2/2 50/2/2 53/2/2
f 53/2/2 50/2/2 54/2/2
f 55/2/2 56/2/2 62/2/2
f 56/3/2 57/3/2 63/3/2
f 62/2/2 56/2/2 63/2/2
f 57/2/2 58/2/2 64/2/2
f 63/3/2 57/3/2 64/3/2
f 58/3/2 59/3/2 65/3/2
f 64/2/2 58/2/2 65/2/2
f 59/2/2 60/2/2 66/2/2
f 65/3/2 59/3/2 66/3/2
f 66/2/2 60/2/2 67/2/2
f 67/2/2 68/2/2 71/2/2
f 71/2/2 68/2/2 72/2/2
f 72/2/2 68/2/2 73/2/2
f 73/2/2 68/2/2 74/2/2
f 69/2/2 70/2/2 75/2/2
f 75/2/2 70/2/2 76/2/2
f 61/1/2 62/1/2 78/1/2
f 78/1/2 62/1/2 79/1/2
f 67/2/2 71/2/2 84/2/2
f 71/3/2 72/3/2 85/3/2
f 84/2/2 71/2/2 85/2/2
f 72/2/2 73/2/2 86/2/2
f 85/3/2 72/3/2 86/3/2
f 86/2/2 73/2/2 87/2/2
f 76/2/2 77/2/2 88/2/2
f 75/2/2 76/2/2 88/2/2
f 74/2/2 75/2/2 88/2/2
f 88/2/2 77/2/2 89/2/2
f 79/2/2 80/2/2 90/2/2
f 90/2/2 80/2/2 91/2/2
f 82/2/2 83/2/2 92/2/2
f 83/2/2 84/2/2 92/2/2
f 81/2/2 82/2/2 92/2/2
f 92/2/2 84/2/2 93/2/2
f 94/2/2 95/2/2 96/2/2
f 96/2/2 95/2/2 97/2/2
f 94/2/2 96/2/2 98/2/2
f 96/3/2 97/3/2 99/3/2
f 98/2/2 96/2/2 99/2/2
f 97/2/2 95/2/2 100/2/2
f 99/3/2 97/3/2 100/3/2
f 100/2/2 95/2/2 101/2/2
f 104/1/3 103/1/3 102/1/3
f 105/1/3 103/1/3 104/1/3
f 109/2/3 107/2/3 106/2/3
f 110/2/3 107/2/3 109/2/3
f 112/2/3 109/2/3 108/2/3
f 113/2/3 109/2/3 112/2/3
f 114/2/3 111/2/3 110/2/3
f 115/2/3 111/2/3 114/2/3
f 116/2/3 114/2/3 113/2/3
f 117/2/3 114/2/3 116/2/3
f 120/2/3 119/2/3 118/2/3
f 121/2/3 119/2/3 120/2/3
f 124/2/3 123/2/3 122/2/3
f 125/2/3 123/2/3 124/2/3
f 129/2/3 127/2/3 126/2/3
f 130/2/3 127/2/3 129/2/3
f 131/2/3 129/2/3 128/2/3
f 132/2/3 129/2/3 131/2/3
f 133/2/4 134/2/4 135/2/4
f 135/2/4 134/2/4 136/2/4
f 137/2/4 138/2/4 140/2/4
f 140/2/4 138/2/4 141/2/4
f 139/2/4 140/2/4 143/2/4
f 143/2/4 140/2/4 144/2/4
f 141/2/4 142/2/4 145/2/4
f 145/2/4 142/2/4 146/2/4
f 144/2/4 145/2/4 147/2/4
f 147/2/4 145/2/4 148/2/4
f 149/2/4 150/2/4 151/2/4
f 151/2/4 150/2/4 152/2/4
f 153/2/4 154/2/4 156/2/4
f 156/2/4 154/2/4 157/2/4
f 155/2/4 156/2/4 158/2/4
f 158/2/4 156/2/4 159/2/4
f 160/2/4 161/2/4 162/2/4
f 162/2/4 161/2/4 163/2/4
f 164/2/4 165/2/4 167/2/4
f 167/2/4 165/2/4 168/2/4
f 166/2/4 167/2/4 169/2/4
f 169/2/4 167/2/4 170/2/4
f 171/2/4 172/2/4 173/2/4
f 173/2/4 172/2/4 174/2/4
f 177/2/5 176/2/5 175/2/5
f 178/2/5 176/2/5 177/2/5
f 179/2/5 177/2/5 175/2/5
f 179/3/5 178/3/5 177/3/5
f 180/3/5 178/3/5 179/3/5
f 181/2/5 179/2/5 175/2/5
f 181/2/5 180/2/5 179/2/5
f 182/2/5 180/2/5 181/2/5
f 183/2/5 181/2/5 175/2/5
f 183/3/5 182/3/5 181/3/5
f 184/3/5 182/3/5 183/3/5
f 185/2/5 183/2/5 175/2/5
f 185/2/5 184/2/5 183/2/5
f 186/2/5 184/2/5 185/2/5
f 190/1/5 188/1/5 187/1/5
f 191/1/5 188/1/5 190/1/5
f 193/2/5 190/2/5 189/2/5
f 194/2/5 190/2/5 193/2/5
f 195/3/5 194/3/5 193/3/5
f 196/3/5 194/3/5 195/3/5
f 197/2/5 192/2/5 191/2/5
f 198/2/5 192/2/5 197/2/5
f 199/2/5 192/2/5 198/2/5
f 200/2/5 192/2/5 199/2/5
f 201/2/5 196/2/5 195/2/5
f 202/2/5 196/2/5 201/2/5
f 203/2/5 192/2/5 200/2/5
f 204/2/5 192/2/5 203/2/5
f 205/2/5 203/2/5 202/2/5
f 206/2/5 203/2/5 205/2/5
f 207/2/5 205/2/5 202/2/5
f 208/2/5 205/2/5 207/2/5
f 210/2/5 209/2/5 208/2/5
f 211/2/5 209/2/5 210/2/5
f 215/2/5 213/2/5 212/2/5
f 216/2/5 213/2/5 215/2/5
f 217/2/5 215/2/5 214/2/5
f 218/2/5 215/2/5 217/2/5
f 220/2/5 219/2/5 218/2/5
f 221/2/5 219/2/5 220/2/5
f 222/2/6 223/2/6 225/2/6
f 225/2/6 223/2/6 226/2/6
f 224/2/6 225/2/6 227/2/6
f 227/2/6 225/2/6 228/2/6
f 229/1/6 230/1/6 232/1/6
f 232/1/6 230/1/6 233/1/6
f 231/2/6 232/2/6 235/2/6
f 235/2/6 232/2/6 236/2/6
f 233/2/6 234/2/6 238/2/6
f 235/3/6 236/3/6 239/3/6
f 239/3/6 236/3/6 240/3/6
f 237/3/6 238/3/6 241/3/6
f 238/2/6 234/2/6 242/2/6
f 241/3/6 238/3/6 242/3/6
f 239/2/6 240/2/6 243/2/6
f 242/2/6 234/2/6 244/2/6
f 244/2/6 234/2/6 245/2/6
f 239/2/6 243/2/6 246/2/6
f 244/3/6 245/3/6 247/3/6
f 247/3/6 245/3/6 248/3/6
f 239/2/6 246/2/6 249/2/6
f 249/2/6 246/2/6 250/2/6
f 247/2/6 248/2/6 251/2/6
f 251/2/6 248/2/6 252/2/6
f 250/2/6 251/2/6 253/2/6
f 253/2/6 251/2/6 254/2/6
f 250/2/6 253/2/6 255/2/6
f 253/3/6 254/3/6 255/3/6
f 255/3/6 254/3/6 256/3/6
f 250/2/6 255/2/6 257/2/6
f 255/2/6 256/2/6 257/2/6
f 257/2/6 256/2/6 258/2/6
f 250/2/6 257/2/6 259/2/6
f 259/2/6 257/2/6 260/2/6
f 260/2/6 261/2/6 263/2/6
f 262/2/6 263/2/6 264/2/6
f 263/2/6 261/2/6 265/2/6
f 264/2/6 263/2/6 265/2/6
f 265/2/6 261/2/6 266/2/6
f 266/2/6 261/2/6 267/2/6
f 268/2/6 269/2/6 270/2/6
f 270/2/6 269/2/6 271/2/6
f 268/2/6 270/2/6 272/2/6
f 268/2/6 272/2/6 274/2/6
f 272/2/6 273/2/6 274/2/6
f 274/2/6 273/2/6 275/2/6
f 274/3/6 275/3/6 276/3/6
f 275/2/6 273/2/6 277/2/6
f 276/3/6 275/3/6 277/3/6
f 276/2/6 277/2/6 278/2/6
f 277/2/6 273/2/6 279/2/6
f 278/2/6 277/2/6 279/2/6
